# xmcd CD database file
#
# Track frame offsets:
#	150
#	12186
#	24668
#	36170
#	48790
#	61573
#	74556
#	86183
#	98016
#	115754
#	129583
#	148084
#	160827
#	177088
#	193009
#	208487
#	219275
#	235318
#
# Disc length: 3320 seconds
#
# Revision: 0
# Processed by: cddbd v1.5.1PL2 Copyright (c) Steve Scherf et al.
# Submitted via: CDex 1.51
#
DISCID=fc0cf612
DTITLE=AA.VV. - Essential Performers - CD3
DYEAR=2005
DGENRE=Blues
TTITLE0=Gladys Knight and The Pips - Letter full of tears
TTITLE1=Percy Sledge - When a man loves a woman
TTITLE2=Kenny Rogers and The First Edition - A poem for a little lady
TTITLE3=Willie Nelson - Any old arms won't do
TTITLE4=Lynn Anderson - Rose garden
TTITLE5=Judy Garland - over the rainbow
TTITLE6=Fats Domino - Blueberry hill
TTITLE7=Chubby Cheker - The twist
TTITLE8=Ike and Tina Turner - River deep mountain high
TTITLE9=Van Morrison - Brown eyed girl
TTITLE10=Santana - With a little help from my friends
TTITLE11=The Bee Gees - Spicks and Specks
TTITLE12=Nina Simone - My baby just cares for me
TTITLE13=Bob Marley and the Wailers - All in one
TTITLE14=Peter Tosh - Get up stand up
TTITLE15=Tom Jones - The green green grass of home
TTITLE16=Johnny Cash - A boy named Sue
TTITLE17=The Jimi Hendrix Experience - Purple haze
EXTD=YEAR: 2005
EXTT0=
EXTT1=
EXTT2=
EXTT3=
EXTT4=
EXTT5=
EXTT6=
EXTT7=
EXTT8=
EXTT9=
EXTT10=
EXTT11=
EXTT12=
EXTT13=
EXTT14=
EXTT15=
EXTT16=
EXTT17=
PLAYORDER=
